<svg width="300" height="300" viewBox="0 0 300 300" fill="none" xmlns="http://www.w3.org/2000/svg">
<path d="M149.743 273L248.479 218.096L266.699 64.7679L149.743 23L34 64.7679L51.4395 218.096L149.743 273Z" stroke="#8e24aa" stroke-width="10"/>
<path d="M77.8638 212.773C77.992 212.451 91.9184 181.206 108.811 143.341C122.558 112.568 149.939 50.9725 149.939 50.9725C149.939 50.9725 176.965 112.365 190.588 143.012C207.374 180.772 221.269 212.047 221.466 212.513L221.826 213.359L208.612 213.356L195.399 213.353L188.126 195.136L180.853 176.919H149.718H118.584L111.311 195.136L104.037 213.353L90.8341 213.356L77.6309 213.359L77.8638 212.773ZM171.326 154.598C171.334 154.078 150.074 103.266 149.848 103.267C149.624 103.267 128.369 154.071 128.373 154.598C128.374 154.706 138.038 154.793 149.848 154.793C161.659 154.793 171.324 154.706 171.326 154.598Z" fill="#FBF9EF"/>
</svg>
