<svg width="300" height="300" viewBox="0 0 300 300" fill="none" xmlns="http://www.w3.org/2000/svg">
<path d="M183.402 144.764C185.61 144.822 187.955 145.816 189.986 146.634C197.047 149.478 202.7 154.503 206.122 161.347C208.174 165.452 209.778 170.145 210.227 174.76C210.369 176.219 210.329 177.689 210.471 179.15C211.676 191.542 206.893 204.779 196.57 212.235C182.125 222.667 164.397 222.802 147.309 222.802H90V77.213H144.139C154.834 77.213 166.161 76.1544 176.573 78.7574C182.881 80.3345 189.251 83.0494 194.132 87.4554C202.707 95.197 204.959 107.148 203.886 118.183C203.15 125.756 199.255 132.871 193.644 137.936C191.55 139.826 189.055 141.462 186.572 142.773C185.593 143.289 183.752 143.68 183.402 144.764ZM115.606 97.9418V138.18H148.041C155.345 138.18 162.645 138.702 169.257 135.213C177.649 130.784 179.233 121.641 178.28 113.062C177.734 108.148 175.593 103.568 171.208 100.949C165.131 97.3203 157.782 97.9418 150.967 97.9418H115.606ZM115.606 156.47V202.073H152.186C159.548 202.073 167.686 202.638 174.378 199.106C188.498 191.654 189.262 167.035 174.866 159.437C168.011 155.819 160.205 156.47 152.674 156.47H115.606Z" fill="#FBF9EF"/>
<rect x="30" y="30" width="240" height="240" rx="25" stroke="#D72E75" stroke-width="10"/>
</svg>
