<svg width="20" height="20" viewBox="0 0 20 20" fill="none" xmlns="http://www.w3.org/2000/svg">
<path d="M9.65411 3.98202C11.1809 3.98202 12.6196 4.65887 13.674 5.71696V5.72009C13.674 5.21198 14.0158 4.82761 14.4883 4.82761H14.6083C15.3539 4.82761 15.5033 5.53072 15.5033 5.75259L15.5064 13.6492C15.4546 14.1667 16.0408 14.4342 16.3664 14.1017C17.632 12.7999 19.1488 7.40253 15.5783 4.27763C12.2484 1.36085 7.77917 1.84271 5.403 3.48016C2.87745 5.2251 1.26313 9.07935 2.8312 12.7017C4.54365 16.651 9.43912 17.8291 12.3528 16.6541C13.8277 16.0585 14.5077 18.0497 12.9746 18.7015C10.6641 19.6871 4.22491 19.5865 1.2175 14.3786C-0.814305 10.8605 -0.706809 4.67199 4.68427 1.46585C8.80476 -0.98845 14.2415 -0.308471 17.5189 3.11329C20.9438 6.69381 20.7456 13.393 17.402 15.9973C15.8877 17.1816 13.639 16.0298 13.6552 14.3042L13.6384 13.7417C12.584 14.786 11.1809 15.3985 9.65411 15.3985C6.63358 15.3985 3.97429 12.7386 3.97429 9.72121C3.97429 6.67131 6.63358 3.98327 9.65411 3.98327V3.98202ZM13.4534 9.50309C13.339 7.29254 11.6984 5.96133 9.71598 5.96133H9.64099C7.35606 5.96133 6.08672 7.76127 6.08672 9.80183C6.08672 12.0899 7.6198 13.5348 9.63161 13.5348C11.8772 13.5348 13.3515 11.8918 13.459 9.94808L13.4534 9.50309Z" fill="#D72E75"/>
</svg>
