<svg width="300" height="300" viewBox="0 0 300 300" fill="none" xmlns="http://www.w3.org/2000/svg">
<path d="M156.664 177.265V275L193.875 275V177.266H230.398L232.062 142.078H193.875V116.383C193.875 106.681 195.909 100.836 208.593 100.836C220.314 100.836 231.054 100.938 231.054 100.938L231.883 68.0782C231.883 68.0782 221.351 66.7109 207.109 66.7109C171.934 66.7109 156.664 88.3969 156.664 112.016V142.078H130.82V177.265H156.664Z" fill="#FBF9EF"/>
<path d="M30 70.6484C30 48.1226 48.1226 30 70.6484 30L229.351 30.0002C251.877 30.0002 269.999 48.1229 269.999 70.6487V229.352C269.999 251.877 251.877 270 229.351 270L70.6484 270C48.1226 270 30 251.877 30 229.351V70.6484Z" stroke="#D72E75" stroke-width="10"/>
</svg>
