<svg width="300" height="300" viewBox="0 0 300 300" fill="none" xmlns="http://www.w3.org/2000/svg">
<path d="M115.787 50.0086V50.7782L135.798 70.7893C138.129 73.1202 141.177 77.6274 144.264 78.8707C146.546 79.7894 150.865 78.1931 153.5 78.4858C158.133 79.0006 162.026 82.0687 165.045 85.4128C167.465 88.093 169.309 91.7781 169.663 95.4183C169.917 98.028 168.148 101.558 169.278 103.884C170.819 107.054 174.886 109.877 177.36 112.351C182.939 117.93 188.275 124.186 194.292 129.283C197.258 131.796 199.437 129.987 202.758 130.309C208.757 130.892 213.347 133.211 217.382 137.749C228.756 150.546 215.655 172.233 198.91 168.279C191.383 166.502 184.286 159.52 183.517 151.603C183.234 148.702 185.638 143.997 184.671 141.598C183.638 139.034 180.056 136.598 178.129 134.671L165.815 122.356C163.647 120.189 161.843 117.824 158.888 116.969V160.839C158.888 167.742 157.833 175.579 158.888 182.389C159.36 185.439 163.092 187.12 165.045 189.316C168.55 193.259 170.173 198.693 169.663 203.94C167.767 223.434 140.007 226.014 132.976 208.558C130.106 201.431 131.821 194.253 136.824 188.547C138.597 186.525 143.03 185.094 143.495 182.389C144.362 177.343 143.495 171.359 143.495 166.227V133.131V120.817C143.495 119.224 143.923 116.875 143.11 115.429C142.231 113.866 140.211 113.297 138.877 112.222C136.431 110.253 134.225 107.555 132.976 104.654C132.049 102.501 131.049 99.3128 131.18 96.9576C131.312 94.5934 133.383 91.5483 132.335 89.261C130.892 86.1131 126.682 83.2234 124.253 80.7948L105.012 61.5534C97.0138 66.1839 90.0454 75.7502 83.4616 82.3341L39.5912 126.205C31.8862 133.91 21.7732 141.756 25.9939 153.912C27.5221 158.313 31.7688 161.482 34.9732 164.687L53.445 183.159L121.944 251.658C131.761 261.475 143.225 279.255 158.888 270.771C163.056 268.514 166.336 264.221 169.663 260.894L188.135 242.422L249.707 180.85L265.87 164.687C270.766 159.792 275.836 154.499 275.106 146.985C274.472 140.469 270.266 136.757 265.87 132.362L251.247 117.738L181.978 48.4692L165.815 32.3065C161.419 27.911 157.707 23.704 151.191 23.0706C143.677 22.34 138.385 27.4107 133.489 32.3065L115.787 50.0086Z" fill="#D72E75"/>
</svg>
