<svg width="300" height="300" viewBox="0 0 300 300" fill="none" xmlns="http://www.w3.org/2000/svg">
<path d="M150.014 25C80.9435 24.9713 25 82.4076 25 153.299C25 209.359 59.9961 257.012 108.734 274.512C115.297 276.205 114.292 271.414 114.292 268.143V245.909C76.3909 250.471 74.8548 224.707 72.3132 220.404C67.1741 211.395 55.0246 209.1 58.6555 204.797C67.2858 200.235 76.0837 205.944 86.2781 221.408C93.6516 232.626 108.035 230.732 115.325 228.867C116.917 222.125 120.325 216.101 125.017 211.424C85.7474 204.194 69.3805 179.579 69.3805 150.316C69.3805 136.114 73.9331 123.061 82.8706 112.532C77.1729 95.1744 83.4013 80.3133 84.2392 78.1042C100.466 76.6124 117.336 90.039 118.649 91.1005C127.866 88.5472 138.395 87.1988 150.182 87.1988C162.024 87.1988 172.581 88.6046 181.882 91.1866C185.038 88.7193 200.679 77.1861 215.761 78.5919C216.571 80.801 222.659 95.3179 217.297 112.446C226.346 123.003 230.955 136.172 230.955 150.402C230.955 179.722 214.476 204.367 175.095 211.482C178.468 214.889 181.146 218.953 182.973 223.435C184.801 227.918 185.74 232.729 185.736 237.589V269.865C185.96 272.447 185.736 275 189.926 275C239.389 257.872 275 209.875 275 153.328C275 82.4076 219.029 25 150.014 25V25Z" fill="#D72E75"/>
</svg>
