<svg width="300" height="300" viewBox="0 0 300 300" fill="none" xmlns="http://www.w3.org/2000/svg">
<path d="M46.2562 219.766C35.9073 216.887 23.8637 213.495 19.4925 212.229L11.5449 209.926L9.67224 189.111C8.64226 177.663 6.04465 148.913 3.89978 125.223C1.7549 101.532 0 80.5404 0 78.5745V75H64.9797C100.718 75 130.245 75.5292 130.594 76.176C131.651 78.1343 119.428 208.657 118.075 209.872C117.383 210.493 111.172 212.498 104.272 214.329C97.3731 216.159 85.7307 219.309 78.4003 221.328L65.0722 225L46.2562 219.766ZM97.6083 203.998C103.43 202.57 108.192 200.861 108.192 200.201C108.192 199.54 110.309 176.246 112.896 148.437C115.484 120.628 117.6 95.5502 117.6 92.7093V87.544H91.9439H66.2875L65.5122 100.48C64.8517 111.5 64.9283 175.137 65.6366 203.858L65.8562 212.763L76.4402 209.679C82.2615 207.983 91.7871 205.426 97.6083 203.998Z" fill="#D72E75"/>
<path d="M106.785 103.151H23.8765L28.7765 153.327H85.2018L83.0165 174.495L64.8406 178.807L47.3855 174.495L45.7925 161.167H28.7765L31.3245 187.235L64.8406 196.839L99.8718 187.235L103.84 136.667H43.2983L42.1927 120.007H105.263L106.785 103.151Z" fill="white"/>
<path d="M215.256 219.766C204.907 216.887 192.864 213.495 188.493 212.229L180.545 209.926L178.672 189.111C177.642 177.663 175.045 148.913 172.9 125.223C170.755 101.532 169 80.5404 169 78.5745V75H233.98C269.718 75 299.245 75.5292 299.594 76.176C300.651 78.1343 288.428 208.657 287.075 209.872C286.383 210.493 280.172 212.498 273.272 214.328C266.373 216.159 254.731 219.309 247.4 221.328L234.072 225L215.256 219.766ZM266.608 203.998C272.43 202.57 277.192 200.861 277.192 200.201C277.192 199.54 279.309 176.246 281.896 148.437C284.484 120.628 286.6 95.5503 286.6 92.7094V87.544H260.944H235.287L234.512 100.48C233.852 111.5 233.928 175.137 234.637 203.858L234.856 212.763L245.44 209.679C251.261 207.983 260.787 205.426 266.608 203.998Z" fill="#D72E75"/>
<path d="M192.812 103.151L194.218 120.007H258.029L256.031 136.667H196.115L197.562 153.327H254.523L252.602 174.495L234.585 178.807L215.757 174.495L214.473 161.167H197.537L199.698 187.235L234.518 196.839L268.666 187.235L275.846 103.151H192.812Z" fill="white"/>
</svg>
