<svg width="300" height="300" viewBox="0 0 300 300" fill="none" xmlns="http://www.w3.org/2000/svg">
<path d="M85.9553 225.745L86.8425 230.665C81.815 231.572 79.5852 235.138 79.4084 237.241C79.3289 238.188 79.63 238.514 79.811 238.655C80.0828 238.866 81.277 239.54 84.3896 238.991L85.9553 225.745ZM85.9553 225.745L86.8425 230.665M85.9553 225.745L86.8425 230.665M86.8425 230.665C91.2465 229.871 93.0799 230.582 93.5581 230.894M86.8425 230.665L93.5581 230.894M93.5581 230.894C93.5674 230.9 93.5782 230.906 93.5899 230.911M93.5581 230.894L93.5899 230.911M93.5899 230.911C93.6813 230.956 93.8254 231.027 93.7166 231.69M93.5899 230.911L93.7166 231.69M93.7166 231.69C93.5588 232.652 92.8141 234.217 91.1204 235.76M93.7166 231.69L91.1204 235.76M91.1204 235.76C89.4854 237.248 87.1877 238.498 84.3898 238.991L91.1204 235.76ZM46.964 119.501L46.9641 119.501C58.1445 108.32 69.1429 96.9726 80.109 85.6585L80.1358 85.6308C91.1199 74.2982 102.072 62.9991 113.194 51.8764L109.659 48.3408L113.194 51.8764C115.163 49.9077 117.156 47.7204 119.108 45.5786C119.46 45.1927 119.81 44.8084 120.158 44.427C122.486 41.8798 124.792 39.4045 127.19 37.1515C132.041 32.5941 136.795 29.4112 141.918 28.4875C156.843 25.7966 165.544 34.5424 177.219 46.277C177.91 46.9717 178.612 47.6768 179.326 48.3906C190.682 59.7469 201.867 71.2794 213.083 82.8444L213.094 82.8562C224.298 94.4082 235.533 105.993 246.95 117.41C248.626 119.086 250.675 120.959 252.778 122.881C253.564 123.6 254.357 124.325 255.142 125.049C258.109 127.79 261.11 130.665 263.762 133.652C269.308 139.899 272.237 145.457 271.678 150.243C270.993 156.099 267.932 160.279 262.919 163.676C257.717 167.201 250.654 169.698 242.579 171.908C239.162 172.844 235.671 173.702 232.137 174.57C231.534 174.718 230.93 174.866 230.324 175.016C226.209 176.03 222.057 177.076 218.126 178.254C210.438 180.56 202.782 183.592 197.607 188.654L197.607 188.654C195.729 190.491 194.76 193.032 195.382 195.797C195.887 198.041 197.312 199.764 198.43 200.904C200.495 203.008 203.624 205.148 206.359 207.019C206.632 207.205 206.901 207.389 207.164 207.57C210.373 209.772 213.161 211.764 215.007 213.708C215.908 214.656 216.359 215.368 216.554 215.839C216.704 216.202 216.668 216.319 216.654 216.365C216.653 216.368 216.652 216.37 216.651 216.372C215.316 221.024 210.767 223.808 202.767 226.417C200.874 227.034 198.916 227.606 196.883 228.197L196.746 228.237C194.783 228.808 192.746 229.401 190.773 230.041C186.803 231.33 182.617 232.955 179.217 235.435C177.04 237.023 175.292 238.502 173.984 239.921C172.716 241.297 171.554 242.943 171.072 244.892C170.525 247.106 170.986 249.166 172.046 250.826C172.963 252.261 174.224 253.236 175.096 253.846C175.736 254.294 176.516 254.772 177.13 255.149C177.334 255.274 177.52 255.388 177.676 255.485C178.446 255.968 178.948 256.322 179.296 256.64C179.448 256.778 179.532 256.876 179.576 256.932C179.572 256.97 179.563 257.023 179.547 257.096L179.547 257.096C179.491 257.351 179.065 258.29 177.068 259.685C175.194 260.994 172.582 262.248 169.56 263.378C163.541 265.631 156.811 267.06 153.498 267.582L154.277 272.521L153.498 267.582C148.625 268.351 146.013 267.934 144.513 267.329C143.127 266.77 142.121 265.828 140.906 264.077C140.498 263.488 140.064 262.775 139.578 261.976C137.284 258.209 133.829 252.533 126.448 249.021C124.248 247.974 121.616 247.409 119.399 246.988C118.613 246.839 117.864 246.705 117.139 246.575C115.587 246.298 114.142 246.039 112.677 245.692C108.051 244.594 106.901 243.368 106.619 242.281L106.619 242.281C106.573 242.104 106.45 241.535 107.617 239.943C108.472 238.776 109.464 237.759 110.678 236.515C111.283 235.894 111.944 235.216 112.67 234.436C114.405 232.571 117.014 229.609 117.561 225.893C118.233 221.326 115.725 217.641 111.906 214.854L111.906 214.854C105.568 210.228 97.8722 207.344 90.5146 205.051C87.6076 204.145 84.8204 203.346 82.1347 202.577C77.6957 201.305 73.5336 200.113 69.5646 198.644C68.7799 198.354 67.9895 198.083 67.1949 197.812C65.433 197.209 63.6503 196.599 61.8628 195.748C60.6433 195.168 59.7289 194.605 59.1157 194.083C59.0044 193.989 58.9113 193.902 58.8333 193.825C59.0552 193.622 59.3714 193.364 59.8135 193.056C61.8258 191.654 64.8193 190.29 68.3762 188.678L68.5757 188.588C71.7519 187.149 75.5609 185.424 78.1959 183.427C79.538 182.41 81.1785 180.89 82.0264 178.741C83.0278 176.204 82.6278 173.579 81.1796 171.367C77.7545 166.133 72.3448 163.652 67.0618 162.278C62.5895 161.115 57.5251 160.589 52.8729 160.106C52.1055 160.027 51.3494 159.948 50.609 159.868C45.106 159.273 40.3032 158.588 36.4174 157.067C32.7157 155.617 30.1892 153.545 28.7511 150.228L24.1638 152.217L28.7511 150.228C26.9873 146.161 28.391 141.133 32.7049 135.034C36.2055 130.084 40.8086 125.562 44.7026 121.736C45.4904 120.962 46.2492 120.216 46.964 119.501ZM179.579 256.861C179.579 256.861 179.58 256.865 179.58 256.873C179.579 256.865 179.579 256.86 179.579 256.861ZM251.077 209.779L251.077 209.779C252.6 209.598 254.725 209.98 257.001 211.002C259.257 212.014 261.138 213.421 262.21 214.672C262.288 214.763 262.359 214.849 262.422 214.929C261.867 215.107 261.006 215.307 259.706 215.448C256.626 215.783 252.188 216.18 247.966 216.006C245.859 215.92 243.942 215.695 242.352 215.306C241.388 215.069 240.656 214.8 240.116 214.534C240.524 214.211 241.034 213.86 241.646 213.493C243.315 212.489 245.378 211.576 247.291 210.882C249.299 210.153 250.706 209.823 251.077 209.779ZM262.952 215.805C262.948 215.805 262.936 215.774 262.928 215.716C262.952 215.777 262.956 215.806 262.952 215.805ZM239.028 213.785C239.028 213.785 239.029 213.787 239.033 213.792C239.029 213.788 239.028 213.786 239.028 213.785ZM236.757 235.664C234.895 236.178 232.445 235.342 230.982 233.558C230.424 232.877 230.344 232.446 230.331 232.323C230.431 232.182 230.726 231.888 231.497 231.529C231.609 231.532 231.98 231.561 232.682 231.883C233.765 232.379 234.964 233.294 235.875 234.373C236.276 234.849 236.567 235.293 236.757 235.664ZM230.286 232.413C230.283 232.412 230.289 232.388 230.316 232.345C230.304 232.393 230.29 232.414 230.286 232.413Z" stroke="#D72E75" stroke-width="10"/>
<path d="M204.329 105.579L184.808 91.6359L182.019 112.551C176.621 111.577 172.116 106.234 166.682 105.911C159.321 105.472 148.273 117.093 141.584 120.22L133.915 88.1501C123.067 101.343 124.829 110.459 106.029 110.459C101.827 110.459 95.4674 111.361 93.8381 106.246C90.1536 94.6805 107.491 82.5048 114.395 75.6012C127.4 62.5956 144.639 38.8249 164.59 55.0123C171.458 60.5844 177.154 67.9471 183.414 74.2068C191.925 82.7178 206.829 92.1054 204.329 105.579ZM99.6554 185.799C112.816 186.079 127.122 191.613 140.091 194.164C142.329 194.605 152.485 195.027 151.998 198.438C151.179 204.16 141.632 202.569 137.999 201.75C126.72 199.207 107.105 195.291 99.6554 185.799Z" fill="#FBF9EF"/>
</svg>
