<svg width="300" height="300" viewBox="0 0 300 300" fill="none" xmlns="http://www.w3.org/2000/svg">
<path fill-rule="evenodd" clip-rule="evenodd" d="M270.471 208.56L269.341 211.487C250.096 248.966 215.991 271.959 167.348 272.974C144.607 273.443 122.94 267.607 108.786 261.263C78.2411 247.539 52.5482 222.088 38.5175 194.894C18.3901 155.912 14.7603 101.686 56.6107 61.1841C57.2569 61.1841 51.5339 69.9667 52.1801 69.9667L51.0282 73.7146C20.871 168.131 113.784 249.045 204.104 239.79C225.811 237.565 253.49 225.678 270.471 208.56Z" fill="#D72E75"/>
<path fill-rule="evenodd" clip-rule="evenodd" d="M215.814 169.519C238.538 169.673 262.272 159.053 276.328 144.143C264.031 175.357 228.426 195.42 180.681 189.039C140.702 183.69 102.619 143.461 98.697 103.15C95.8285 73.8129 106.052 56.304 122.901 35.0641C117.046 46.1729 114.857 54.7391 114.312 60.2036C107.912 123.665 165.007 169.185 215.814 169.519" fill="#D72E75"/>
<path fill-rule="evenodd" clip-rule="evenodd" d="M274.044 90.6952C270.513 98.7978 250.175 114.098 241.193 116.012C205.627 123.589 182.851 106.723 170.919 87.5317C169.146 84.666 165.867 76.8387 165.28 74.8467C160.653 59.1135 162.779 35.3169 176.582 23C172.424 34.7129 171.818 48.3165 174.006 57.1609C175.332 62.5074 179.372 71.8434 183.415 77.7152C190.771 88.411 195.437 91.0098 204.886 96.6907C209.142 99.2473 213.707 101.298 215.68 101.86C224.639 104.498 243.556 111.446 274.047 90.6952" fill="#D72E75"/>
</svg>
