<svg width="300" height="300" viewBox="0 0 300 300" fill="none" xmlns="http://www.w3.org/2000/svg">
<path d="M55 30H245C258.807 30 270 41.1929 270 55V245C270 258.807 258.807 270 245 270H55C41.1929 270 30 258.807 30 245V55C30 41.1929 41.1929 30 55 30Z" stroke="#D72E75" stroke-width="10"/>
<path d="M90.734 233.918L109.865 222.34C113.556 228.884 116.914 234.421 124.967 234.421C132.687 234.421 137.555 231.401 137.555 219.655V139.774H161.048V219.987C161.048 244.32 146.785 255.396 125.974 255.396C107.18 255.396 96.2711 245.663 90.733 233.916L90.734 233.918ZM173.809 231.4L192.938 220.325C197.974 228.549 204.519 234.59 216.097 234.59C225.833 234.59 232.04 229.723 232.04 223.01C232.04 214.955 225.663 212.102 214.922 207.404L209.05 204.885C192.1 197.671 180.857 188.608 180.857 169.478C180.857 151.856 194.282 138.431 215.259 138.431C230.195 138.431 240.935 143.634 248.654 157.227L230.361 168.975C226.333 161.759 221.971 158.906 215.258 158.906C208.378 158.906 204.014 163.27 204.014 168.975C204.014 176.022 208.378 178.877 218.446 183.24L224.319 185.757C244.29 194.316 255.533 203.042 255.533 222.675C255.533 243.821 238.92 255.399 216.6 255.399C194.785 255.399 180.688 244.995 173.808 231.401" fill="#FBF9EF"/>
</svg>
