<svg width="300" height="300" viewBox="0 0 300 300" fill="none" xmlns="http://www.w3.org/2000/svg">
<path d="M30 73.9907C30 49.8106 49.811 30 73.9907 30H226.017C250.196 30 270 49.81 270 73.9907V226.017C270 250.197 250.197 270 226.017 270H73.9907C49.8095 270 30 250.196 30 226.017V73.9907Z" stroke="#D72E75" stroke-width="10"/>
<path d="M86.3126 66.255C99.2302 66.255 107.187 74.7352 107.433 85.8823C107.433 96.7833 99.2297 105.502 86.0627 105.502H85.8204C73.1486 105.502 64.9583 96.7838 64.9583 85.8823C64.9583 74.7355 73.3967 66.255 86.3126 66.255ZM197.631 118.355C222.474 118.355 241.098 134.593 241.098 169.487V234.627H203.343V173.854C203.343 158.582 197.879 148.163 184.216 148.163C173.785 148.163 167.568 155.186 164.838 161.97C163.841 164.397 163.596 167.787 163.596 171.182V234.627H125.841C125.841 234.627 126.337 131.679 125.841 121.019H163.604V137.107C168.621 129.367 177.595 118.355 197.631 118.355ZM67.1852 121.028H104.94V234.628H67.1852V121.028Z" fill="#FBF9EF"/>
</svg>
