<svg width="18" height="18" viewBox="0 0 18 18" fill="none" xmlns="http://www.w3.org/2000/svg">
<path d="M8.74998 13.75L4.94373 8.375C4.32072 7.63942 3.91951 6.74197 3.78683 5.78718C3.65415 4.83239 3.79546 3.85956 4.1943 2.98197C4.59314 2.10439 5.2331 1.35818 6.03964 0.830244C6.84619 0.302312 7.78613 0.0143858 8.74998 0C10.0861 0.0132033 11.3625 0.555371 12.2996 1.50776C13.2368 2.46015 13.7583 3.74512 13.75 5.08125C13.7505 6.24683 13.3537 7.37778 12.625 8.2875L8.74998 13.75ZM8.74998 1.25C7.74489 1.26154 6.78546 1.67149 6.08236 2.38982C5.37927 3.10815 4.98998 4.07614 4.99998 5.08125C5.00417 5.99864 5.33422 6.88469 5.93123 7.58125L8.74998 11.575L11.6437 7.5C12.1938 6.8134 12.4955 5.961 12.5 5.08125C12.51 4.07614 12.1207 3.10815 11.4176 2.38982C10.7145 1.67149 9.75507 1.26154 8.74998 1.25Z" fill="#D72E75"/>
<path d="M8.75 5.625C9.44036 5.625 10 5.06536 10 4.375C10 3.68464 9.44036 3.125 8.75 3.125C8.05964 3.125 7.5 3.68464 7.5 4.375C7.5 5.06536 8.05964 5.625 8.75 5.625Z" fill="#D72E75"/>
<path d="M16.25 6.25H15V7.5H16.25V16.25H1.25V7.5H2.5V6.25H1.25C0.918479 6.25 0.600537 6.3817 0.366116 6.61612C0.131696 6.85054 0 7.16848 0 7.5V16.25C0 16.5815 0.131696 16.8995 0.366116 17.1339C0.600537 17.3683 0.918479 17.5 1.25 17.5H16.25C16.5815 17.5 16.8995 17.3683 17.1339 17.1339C17.3683 16.8995 17.5 16.5815 17.5 16.25V7.5C17.5 7.16848 17.3683 6.85054 17.1339 6.61612C16.8995 6.3817 16.5815 6.25 16.25 6.25Z" fill="#D72E75"/>
</svg>
