<svg width="300" height="300" viewBox="0 0 300 300" fill="none" xmlns="http://www.w3.org/2000/svg">
<path d="M33.9286 57H266.071C268.249 57 270 58.7514 270 60.9286V239.5C270 241.677 268.249 243.429 266.071 243.429H33.9286C31.7514 243.429 30 241.677 30 239.5V60.9286C30 58.7514 31.7514 57 33.9286 57Z" stroke="#D72E75" stroke-width="10"/>
<path d="M243.527 82.3851L155.497 150.884C153.32 152.586 150.279 152.586 148.103 150.884L60.0448 82.3851C59.7128 82.1289 59.4693 81.7753 59.3485 81.3738C59.2276 80.9723 59.2354 80.543 59.3707 80.1462C59.5061 79.7493 59.7623 79.4048 60.1033 79.1608C60.4443 78.9168 60.8531 78.7857 61.2724 78.7858H242.299C242.719 78.7857 243.127 78.9168 243.468 79.1608C243.809 79.4048 244.066 79.7493 244.201 80.1462C244.336 80.543 244.344 80.9723 244.223 81.3738C244.102 81.7753 243.859 82.1289 243.527 82.3851Z" fill="#FBF9EF"/>
<circle cx="244" cy="219" r="50" fill="#FBF9EF"/>
<path d="M243.836 187L243.018 187.064C242.11 187.23 241.274 187.668 240.621 188.321C239.968 188.974 239.53 189.81 239.364 190.718L239.291 191.545V214.273H216.545L215.727 214.345C214.819 214.511 213.983 214.95 213.33 215.603C212.677 216.256 212.239 217.092 212.073 218L212 218.818L212.073 219.636C212.239 220.545 212.677 221.381 213.33 222.034C213.983 222.686 214.819 223.125 215.727 223.291L216.545 223.364H239.291V246.118L239.364 246.936C239.53 247.845 239.968 248.681 240.621 249.334C241.274 249.986 242.11 250.425 243.018 250.591L243.836 250.664L244.655 250.591C245.563 250.425 246.399 249.986 247.052 249.334C247.705 248.681 248.143 247.845 248.309 246.936L248.382 246.118V223.364L271.145 223.373L271.964 223.3C272.872 223.134 273.708 222.696 274.361 222.043C275.014 221.39 275.452 220.554 275.618 219.645L275.691 218.827L275.618 218.009C275.452 217.1 275.012 216.263 274.357 215.61C273.703 214.957 272.864 214.519 271.955 214.355L271.136 214.282H248.382V191.555L248.309 190.736C248.145 189.826 247.707 188.988 247.054 188.334C246.401 187.679 245.564 187.239 244.655 187.073L243.836 187Z" fill="#D72E75"/>
</svg>
