<svg width="20" height="21" viewBox="0 0 20 21" fill="none" xmlns="http://www.w3.org/2000/svg">
<path d="M19.1276 3.16751L16.4651 0.507502C16.1401 0.182501 15.7051 0 15.2451 0C14.7851 0 14.3501 0.180001 14.0251 0.507502L11.1575 3.37001C10.8325 3.69502 10.65 4.13252 10.65 4.59252C10.65 5.05502 10.83 5.48752 11.1575 5.81503L13.3976 8.05753C12.8873 9.2465 12.1541 10.3268 11.2375 11.24C10.32 12.1626 9.24754 12.8901 8.05753 13.4051L5.81753 11.1625C5.49252 10.8375 5.05752 10.655 4.59752 10.655C4.37063 10.6542 4.14585 10.6987 3.93636 10.7858C3.72686 10.873 3.53687 11.001 3.37751 11.1625L0.507502 14.0251C0.182501 14.3501 0 14.7876 0 15.2476C0 15.7101 0.180001 16.1426 0.507502 16.4701L3.16751 19.1301C3.72252 19.6851 4.48752 20.0026 5.27252 20.0026C5.43502 20.0026 5.59252 19.9901 5.75253 19.9626C9.06254 19.4176 12.3476 17.6551 15.0001 15.0051C17.6501 12.3501 19.4101 9.06504 19.9601 5.75253C20.1176 4.81252 19.8026 3.84502 19.1276 3.16751ZM18.1876 5.45502C17.7001 8.40254 16.1151 11.3425 13.7276 13.7301C11.34 16.1176 8.40254 17.7026 5.45502 18.1901C5.08502 18.2526 4.70502 18.1276 4.43502 17.8601L1.82251 15.2476L4.59252 12.4751L7.58753 15.4751L7.61003 15.4976L8.15003 15.2976C9.78736 14.6956 11.2742 13.7448 12.5075 12.511C13.7409 11.2773 14.6912 9.79007 15.2926 8.15254L15.4926 7.61253L12.4726 4.59502L15.2426 1.82251L17.8551 4.43502C18.1251 4.70502 18.2501 5.08502 18.1876 5.45502Z" fill="#D72E75"/>
</svg>
