<svg width="300" height="300" viewBox="0 0 300 300" fill="none" xmlns="http://www.w3.org/2000/svg">
<path d="M226.064 113.065C223.552 112.203 221.019 111.405 218.467 110.671C218.896 108.919 219.291 107.188 219.641 105.488C225.392 77.5693 221.632 55.0772 208.79 47.6718C196.477 40.5724 176.339 47.9751 156.002 65.6747C153.998 67.4222 152.038 69.22 150.124 71.0665C148.843 69.8386 147.54 68.6346 146.214 67.455C124.899 48.5302 103.535 40.554 90.7062 47.9807C78.404 55.1021 74.7612 76.2463 79.9392 102.706C80.4543 105.326 81.036 107.933 81.6836 110.524C78.6594 111.384 75.7413 112.298 72.9486 113.272C47.9588 121.985 32 135.638 32 149.801C32 164.429 49.1325 179.1 75.1605 187.997C77.2706 188.715 79.3983 189.381 81.5416 189.993C80.8455 192.783 80.2275 195.593 79.6884 198.418C74.752 224.418 78.6069 245.063 90.8759 252.139C103.548 259.447 124.816 251.936 145.525 233.833C147.205 232.361 148.847 230.848 150.451 229.294C152.523 231.293 154.65 233.234 156.831 235.115C176.892 252.377 196.703 259.347 208.96 252.252C221.62 244.923 225.735 222.745 220.393 195.763C219.972 193.649 219.5 191.545 218.978 189.454C220.472 189.012 221.938 188.556 223.367 188.082C250.425 179.118 268.031 164.624 268.031 149.801C268.031 135.587 251.557 121.841 226.064 113.065ZM220.196 178.512C218.905 178.939 217.581 179.351 216.231 179.752C213.244 170.295 209.213 160.24 204.279 149.85C208.987 139.708 212.863 129.781 215.767 120.386C218.181 121.085 220.524 121.821 222.783 122.599C244.625 130.118 257.948 141.235 257.948 149.801C257.948 158.925 243.559 170.77 220.196 178.512ZM210.502 197.721C212.864 209.652 213.201 220.439 211.636 228.872C210.231 236.45 207.404 241.502 203.908 243.526C196.47 247.831 180.563 242.235 163.407 227.472C161.379 225.723 159.4 223.919 157.473 222.06C164.124 214.786 170.77 206.331 177.258 196.939C188.668 195.927 199.448 194.271 209.224 192.011C209.705 193.954 210.133 195.859 210.502 197.721ZM112.468 242.782C105.201 245.348 99.4126 245.421 95.9137 243.404C88.4685 239.11 85.3734 222.534 89.5952 200.299C90.0971 197.671 90.6717 195.058 91.3184 192.463C100.986 194.602 111.688 196.14 123.125 197.067C129.657 206.257 136.495 214.703 143.387 222.1C141.923 223.517 140.423 224.898 138.891 226.241C129.732 234.246 120.556 239.925 112.468 242.782ZM78.4225 178.456C66.9132 174.522 57.4084 169.409 50.8935 163.83C45.0389 158.817 42.0839 153.84 42.0839 149.801C42.0839 141.206 54.8968 130.244 76.2678 122.793C78.8613 121.89 81.5757 121.037 84.3924 120.237C87.3465 129.844 91.2207 139.889 95.8961 150.046C91.1598 160.354 87.2303 170.56 84.2476 180.281C82.2913 179.72 80.349 179.112 78.4225 178.456ZM89.8349 100.769C85.3992 78.0995 88.345 60.9992 95.7588 56.7073C103.655 52.1361 121.115 58.6537 139.519 74.9951C140.72 76.0631 141.9 77.1528 143.061 78.2636C136.203 85.6276 129.427 94.0113 122.954 103.146C111.853 104.175 101.227 105.828 91.4576 108.041C90.8557 105.631 90.3147 103.206 89.8349 100.769ZM191.648 125.91C189.341 121.924 186.947 117.988 184.47 114.105C192.001 115.058 199.217 116.322 205.993 117.867C203.959 124.387 201.423 131.204 198.439 138.192C196.257 134.053 193.993 129.958 191.648 125.91ZM150.129 85.4699C154.779 90.5086 159.437 96.1337 164.019 102.237C154.725 101.798 145.416 101.797 136.122 102.232C140.708 96.1844 145.405 90.5667 150.129 85.4699ZM108.343 125.979C106.027 129.995 103.806 134.064 101.68 138.184C98.7442 131.22 96.2317 124.373 94.1803 117.76C100.915 116.253 108.096 115.022 115.579 114.087C113.074 117.993 110.662 121.959 108.343 125.979ZM115.794 186.233C108.063 185.37 100.773 184.202 94.0411 182.736C96.1248 176.005 98.6925 169.012 101.692 161.899C103.826 166.022 106.057 170.094 108.383 174.111C110.774 178.242 113.251 182.288 115.794 186.233ZM150.407 214.842C145.628 209.687 140.861 203.982 136.206 197.847C140.725 198.024 145.333 198.115 150.015 198.115C154.826 198.115 159.582 198.007 164.263 197.798C159.667 204.044 155.026 209.757 150.407 214.842ZM198.534 161.535C201.689 168.727 204.348 175.683 206.459 182.299C199.616 183.861 192.227 185.118 184.442 186.052C186.937 182.097 189.352 178.093 191.688 174.042C194.062 169.925 196.345 165.755 198.534 161.535ZM182.954 169.005C179.378 175.215 175.602 181.308 171.631 187.274C164.437 187.783 157.227 188.036 150.015 188.033C142.67 188.033 135.525 187.804 128.645 187.358C124.57 181.406 120.722 175.302 117.108 169.06C113.512 162.85 110.153 156.506 107.038 150.042C110.146 143.576 113.495 137.229 117.079 131.015L117.078 131.016C120.661 124.8 124.479 118.722 128.523 112.796C135.542 112.265 142.74 111.988 150.015 111.988C157.322 111.988 164.53 112.268 171.548 112.802C175.551 118.72 179.344 124.776 182.921 130.961C186.517 137.162 189.91 143.478 193.096 149.899C189.943 156.386 186.56 162.758 182.954 169.005ZM203.754 56.4068C211.657 60.9651 214.731 79.3469 209.765 103.453C209.448 104.99 209.092 106.557 208.705 108.145C198.912 105.885 188.278 104.204 177.145 103.159C170.66 93.9237 163.939 85.5271 157.193 78.2581C158.961 76.5538 160.771 74.8937 162.622 73.2793C180.048 58.1152 196.334 52.1278 203.754 56.4068Z" fill="#D72E75"/>
<path d="M149.85 128.791C161.49 128.791 170.926 138.227 170.926 149.867C170.926 161.508 161.49 170.944 149.85 170.944C138.209 170.944 128.773 161.508 128.773 149.867C128.773 138.227 138.209 128.791 149.85 128.791Z" fill="#FBF9EF"/>
</svg>
