<svg width="300" height="300" viewBox="0 0 300 300" fill="none" xmlns="http://www.w3.org/2000/svg">
<path d="M29.7992 252.577C20.008 249.645 16.032 234.685 21.8269 222.581C26.2584 213.325 40.2386 201.58 57.9373 192.243L64.9856 188.525L62.2745 186.283C60.7835 185.049 55.2001 181.08 49.8671 177.463C28.3313 162.854 18.7078 153.56 13.1461 141.997C10.0255 135.509 9.72718 134.201 10.1542 128.881C11.8975 107.163 37.3282 80.8846 73.5393 63.3827C102.421 49.4234 123.068 44.4989 144.801 46.3866C174.653 48.9796 189.821 64.167 185.402 87.041C181.896 105.194 167.621 122.316 148.237 131.62C134.316 138.302 124.919 140.322 107.756 140.322C94.2119 140.322 92.9631 140.164 87.997 137.828C82.012 135.012 75.7442 129.232 74.8615 125.715C73.9763 122.188 75.0375 121.958 78.5516 124.915C84.8493 130.214 89.3592 131.517 101.491 131.541C114.314 131.566 122.929 129.551 135.812 123.514C145.568 118.942 152.368 113.969 159.719 106.03C171 93.8448 174.604 79.8341 168.512 71.8473C164.863 67.0634 157.872 64.041 147.172 62.6219C130.849 60.4572 108.664 65.5379 85.5874 76.7253C42.8692 97.435 23.0743 122.873 33.3436 143.863C36.7747 150.876 42.5078 156.67 57.6358 168.414C64.5273 173.765 70.9921 179.066 72.002 180.195C73.0118 181.325 74.3847 182.249 75.053 182.249C75.7212 182.249 81.9965 179.188 88.9982 175.446C98.8678 170.172 103.06 167.292 107.652 162.631C117.838 152.294 128.677 148.625 133.824 153.772C135.836 155.785 136.189 157.047 136.189 162.231V168.324L139.961 167.965C146.138 167.375 146.309 168.955 141.911 185.981C138.282 200.033 137.181 208.273 138.933 208.273C139.661 208.273 148.851 189.813 153.808 178.394C154.844 176.008 156.988 171.237 158.574 167.791C161.598 161.22 166.064 150.025 167.595 145.182C168.6 142 170.856 141.042 177.635 140.914C184.667 140.783 185.086 141.449 183.009 149.459C180.923 157.498 181.3 166.36 183.962 171.888C184.919 173.876 185.948 175.497 186.247 175.49C186.862 175.477 192.874 165.172 198.69 154.161C200.829 150.111 203.234 144.294 204.032 141.235C205.997 133.712 207.011 132.903 214.679 132.744C222.404 132.583 223.406 133.577 221.248 139.262C220.384 141.542 219.71 146.521 219.656 151.032C219.575 157.805 219.94 159.641 222.39 164.766C223.945 168.02 225.563 170.683 225.984 170.683C226.406 170.683 230.014 169.587 234.002 168.249C243.521 165.053 257.023 164.814 266.202 167.679C284.332 173.336 294.662 190.391 287.931 203.552C285.502 208.3 276.957 214.424 275.205 212.672C274.877 212.343 276.22 210.747 278.19 209.123C280.159 207.5 282.412 204.931 283.196 203.415C287.784 194.543 280.545 182.425 267.64 177.371C262.8 175.475 260.139 175.141 249.442 175.085C235.205 175.011 228.111 176.446 229.219 179.175C230.777 183.013 230.879 192.498 229.392 195.372C225.668 202.574 212.66 211.136 205.414 211.155C200.885 211.168 198.839 209.094 198.839 204.493C198.839 197.332 202.65 190.206 210.704 182.304L215.069 178.022L212.808 173.561C211.565 171.107 209.826 166.311 208.945 162.903C208.064 159.495 207.23 156.593 207.094 156.453C206.957 156.313 204.558 160.216 201.764 165.127C198.969 170.038 195.195 176.302 193.376 179.047L190.07 184.037L191.672 189.548C193.851 197.041 193.142 203.45 189.577 208.495C182.656 218.289 159.638 224.795 157.802 217.477C157.027 214.392 158.371 212.138 167.024 202.008C178.704 188.334 178.302 189.394 174.811 181.441C173.187 177.739 171.348 172.503 170.725 169.805C170.102 167.107 169.34 164.9 169.031 164.9C168.721 164.9 167.429 167.611 166.16 170.924C164.89 174.237 159.481 185.616 154.141 196.211C144.166 216.003 137.943 224.658 133.689 224.658C128.541 224.658 125.619 219.108 125.573 209.237L125.547 203.936L121.174 213.092C116.182 223.546 113.073 227.279 108.667 228.105C103.588 229.058 100.131 226.532 96.5447 219.247C93.9077 213.891 93.3344 211.507 93.0066 204.54C92.6557 197.081 93.4329 190.051 95.3575 183.278C96.0094 180.984 95.882 181.011 89.3593 184.566C79.9993 189.667 80.0672 189.572 81.756 195.183C83.3847 200.595 83.5869 212.555 82.1547 218.768C78.5536 234.388 63.9903 248.951 48.3679 252.552C43.3081 253.719 33.655 253.731 29.7984 252.578L29.7992 252.577ZM53.0647 235.679C55.8253 234.303 60.365 230.681 63.2926 227.519C69.9953 220.279 72.5754 213.736 72.5754 203.978C72.5754 193.611 72.3017 193.228 67.0875 196.283C60.6108 200.079 51.4358 206.641 46.3718 211.099C38.1848 218.307 33.7407 230.715 37.4496 236.01C39.6045 239.087 46.5201 238.94 53.0647 235.679V235.679ZM112.839 209.478C115.558 205.563 121.963 190.032 125.948 177.689C130.681 163.027 130.549 159.938 125.276 161.943C116.151 165.413 106.31 185.535 106.31 200.725C106.31 205.667 108.429 212.128 110.051 212.128C110.572 212.128 111.826 210.936 112.839 209.478ZM178.788 208.197C183.147 203.988 182.561 198.42 181.138 196.997C178.455 198.875 175.426 201.494 173.76 203.261C171.499 205.701 167.996 211.163 167.996 211.505C167.996 213.372 174.619 212.222 178.788 208.197ZM213.009 200.601C217.785 197.689 221 189.82 219.296 185.213C218.499 183.059 218.356 183.127 214.512 187.493C211.185 191.274 207.514 198.724 207.514 201.698C207.514 203.029 209.764 202.58 213.009 200.601V200.601Z" fill="#D72E75"/>
</svg>
