<svg width="300" height="300" viewBox="0 0 300 300" fill="none" xmlns="http://www.w3.org/2000/svg">
<path d="M42.2047 143.267C42.7506 139.285 44.3378 136.014 46.9928 133.4C50.539 129.908 51.3368 129.441 55.9218 128.169C61.5723 126.602 66.6195 127.431 71.5228 130.731L74.8434 132.965H95.4908C111.987 132.965 116.138 132.791 116.138 132.097C116.138 131.619 109.598 124.742 101.605 116.816L87.071 102.404L83.569 102.08C79.3145 101.687 73.9098 98.359 71.2187 94.4751C70.226 93.0424 68.8919 89.8799 68.254 87.4473C67.1369 83.1874 67.1412 82.869 68.3709 78.8079C70.0105 73.3926 73.5715 68.8937 78.1494 66.4537C81.1542 64.8522 82.5259 64.5452 86.737 64.5318C92.4893 64.5136 96.4875 66.1168 100.565 70.0766C103.336 72.7678 106.115 78.5905 106.115 81.7047C106.115 83.6257 107.714 85.4602 120.654 98.3909C128.651 106.381 135.567 112.919 136.023 112.919C136.666 112.919 136.853 108.307 136.853 92.4556V71.9923L134.218 68.0467C131.328 63.7192 130.434 59.9706 131.051 54.766C132.496 42.5636 146.228 34.687 157.259 39.7329C164.087 42.8558 168.107 48.3694 168.753 55.4966C169.209 60.5254 168.105 64.7647 165.226 69.0399L162.913 72.4742V92.323C162.913 106.176 163.138 112.311 163.657 112.631C164.092 112.9 170.393 107.099 178.859 98.6344L193.317 84.1778L194.432 79.5501C196.762 69.8846 203.386 64.5259 213.029 64.5051C218.649 64.493 222.285 65.9208 226.286 69.7104C232.135 75.2499 233.791 84.2536 230.306 91.5716C227.458 97.5556 221.047 102.18 215.557 102.213C213.219 102.227 212.208 103.09 198.35 116.906C190.253 124.979 183.628 131.895 183.628 132.275C183.628 132.735 190.556 132.965 204.4 132.965H225.173L227.955 130.98C229.485 129.889 232.616 128.518 234.913 127.935C238.732 126.965 239.447 126.965 243.266 127.942C249.981 129.66 255.69 134.609 256.804 139.678C257.04 140.756 257.512 141.808 257.851 142.018C258.19 142.228 258.468 143.284 258.468 144.364V146.33H150.126H41.7852L42.2047 143.267Z" fill="#FBF9EF"/>
<path d="M51.7284 272.107C44.6519 269.844 40.6879 267.519 35.9879 262.874C30.64 257.589 28.4771 254.068 26.423 247.305C25.026 242.706 25 241.714 25 193.014C25 145.046 25.0455 143.252 26.366 138.659C27.1172 136.047 28.3707 132.707 29.1514 131.236C32.4119 125.097 38.629 118.876 44.7123 115.667C48.4264 113.707 56.033 111.524 59.1492 111.524C60.5805 111.524 61.7516 111.224 61.7516 110.858C61.7516 110.491 60.739 109.063 59.5012 107.684C57.0012 104.898 55.1355 101.486 52.9397 95.6851C50.7656 89.941 50.8273 79.4415 53.0706 73.4361C55.271 67.5453 57.1662 64.3165 60.5598 60.6772C69.3764 51.222 79.9731 47.5066 92.9475 49.3216C98.0169 50.0308 104.494 52.2935 106.851 54.1786C107.221 54.4745 108.842 55.7811 110.454 57.0821C112.065 58.3831 113.532 59.2981 113.715 59.1155C113.898 58.933 114.416 56.2863 114.866 53.2341C116.459 42.4531 124.115 33.1127 132.825 27.1473C137.762 23.7662 144.306 22.9972 150.29 23C156.328 23.0028 162.987 23.7061 167.91 27.2015C177.283 33.8554 185.3 43.8743 186.522 56.2296C186.695 57.9753 187.019 59.4037 187.241 59.4037C187.464 59.4037 188.563 58.524 189.683 57.4488C190.803 56.3737 193.974 54.2873 196.731 52.8126C206.444 47.6154 219.11 47.4933 229.441 52.4974C249.772 62.3457 255.825 89.9285 241.468 107.302C240.016 109.06 238.828 110.687 238.828 110.918C238.828 111.149 240.557 111.499 242.67 111.694C247.271 112.12 253.299 114.081 257.872 116.638C262.334 119.134 268.815 125.887 271.003 130.32C275.611 139.655 275.246 134.284 275.246 192.69V245.501L273.612 249.844C272.714 252.233 271.779 254.338 271.534 254.522C271.289 254.705 270.608 255.794 270.021 256.94C268.453 260.002 262.453 265.651 257.949 268.305C249.594 273.229 257.417 272.888 150.624 272.983C68.8845 273.055 54.2917 272.926 51.7284 272.107Z" stroke="#D72E75" stroke-width="10" stroke-linecap="round" stroke-linejoin="round"/>
<path d="M118.477 154.308L136.036 154.348L149.914 218.522L163.957 154.682C163.957 154.682 175.839 154.433 181.781 154.308C173.412 192.48 166.883 229.145 158.675 263.935C152.992 263.935 147.308 263.935 141.625 263.935L118.477 154.308Z" fill="#FBF9EF"/>
<path d="M79.0532 263.292C70.7525 261.501 63.5407 256.644 58.6694 249.564C56.711 246.717 54.4686 240.832 53.6424 236.371L53.1782 233.865H61.5516H69.9249L71.0302 237.193C72.3904 241.288 76.7269 245.349 81.0256 246.552C87.7673 248.44 95.025 245.045 97.9615 238.631C100.383 233.342 100.162 230.089 97.0616 225.419C95.6908 223.353 94.0099 221.517 93.3262 221.338C92.6426 221.16 92.0833 220.769 92.0833 220.471C92.0833 220.173 90.3543 219.589 88.2411 219.174C86.1279 218.758 83.4967 218.164 82.3942 217.853C81.2916 217.541 78.7357 216.917 76.7144 216.465C73.062 215.647 68.5341 213.688 66.9484 212.238C58.8496 204.834 55.1881 198.872 53.8142 190.851C52.2629 181.795 56.8105 168.74 63.6843 162.515C75.9289 151.427 95.8622 152.117 107.66 164.037C112.102 168.524 116.807 178.479 116.807 183.388V185.086H107.786C103.81 185.086 101.586 185.084 100.343 184.949C98.7804 184.779 98.7654 184.399 98.7654 183.546C98.7654 181.657 95.4438 176.288 93.3807 174.843C92.5476 174.26 90.1058 173.029 88.2994 172.66C85.942 172.18 84.5117 171.608 81.0818 172.687C71.0094 175.855 67.4241 187.804 74.2225 195.547C76.8566 198.547 80.5376 200.159 86.1026 200.75C91.1637 201.287 99.4838 204.013 102.701 206.189C107.421 209.381 112.402 216.633 114.826 223.842C116.556 228.985 116.376 236.483 114.376 242.552C111.534 251.178 103.769 258.983 95.2426 261.782C90.1009 263.47 82.9615 264.136 79.0532 263.292V263.292Z" fill="#FBF9EF"/>
<path d="M210.984 263.225C197.451 261.233 186.823 250.942 185.02 238.086C184.086 231.424 183.558 184.376 184.368 179.994C186.726 167.241 197.583 156.828 210.422 155.007C220.17 153.624 229.477 156.257 236.596 162.41C240.721 165.975 245.65 175.621 246.233 181.266L246.627 185.086H238.494C231.335 185.086 230.317 184.946 229.991 183.916C228.111 177.971 224.588 173.889 220.041 172.388C215.139 170.77 207.451 172.933 204.424 176.782C203.664 177.749 202.849 179.564 202.614 180.818C202.379 182.071 201.92 183.261 201.594 183.462C200.826 183.937 200.816 235.008 201.584 235.482C201.904 235.68 202.345 236.734 202.563 237.824C203.058 240.301 206.854 244.278 209.964 245.577C212.622 246.688 218.132 246.875 220.597 245.938C223.125 244.977 227.001 241.284 228.438 238.466C229.526 236.334 229.736 234.516 229.736 227.21V218.496H223.053H216.371V209.371V200.246L226.501 200.684C232.072 200.926 239.019 201.123 241.939 201.123H247.248L246.962 219.666C246.685 237.641 246.623 238.349 244.946 242.787C241.82 251.06 236.605 256.819 228.59 260.846C225.679 262.309 217.814 264.09 215.369 263.84C215.001 263.802 213.028 263.526 210.984 263.225H210.984Z" fill="#FBF9EF"/>
</svg>
